<svg width="104" height="38" viewBox="0 0 104 38" fill="none" xmlns="http://www.w3.org/2000/svg">
<g filter="url(#filter0_d_1_383)">
<path fill-rule="evenodd" clip-rule="evenodd" d="M31.4149 21.238L31.4149 21.2381C31.8448 22.3333 31.9403 23.3809 31.797 24.4285C31.4627 26.619 30.0298 28.5238 27.9284 29.3809C27.1642 29.7143 26.3522 29.8571 25.4925 29.8571C25.2537 29.8571 24.9672 29.8571 24.7284 29.8095C23.7254 29.7143 22.7224 29.3809 21.7194 28.8095C20.5254 28.1428 19.3313 27.1428 17.994 25.7143C16.6567 27.1428 15.5104 28.1428 14.2687 28.8095C13.2657 29.3809 12.2627 29.6666 11.2597 29.8095C11.1403 29.8095 11.0089 29.8214 10.8776 29.8333C10.7463 29.8452 10.6149 29.8571 10.4955 29.8571C9.63581 29.8571 8.82387 29.7143 8.0597 29.3809C6.00596 28.5238 4.47761 26.6666 4.14328 24.4285C3.99999 23.3333 4.14328 22.2857 4.52537 21.2381C4.66865 20.8095 4.81193 20.4762 4.95521 20.1429L4.95522 20.1428C5.19402 19.619 5.43283 19.0952 5.62387 18.619L5.67164 18.5714C7.77313 14.0952 9.97014 9.57141 12.2627 5.09521L12.3582 4.90474C12.597 4.47617 12.8358 3.99998 13.0746 3.52379C13.1389 3.42308 13.2032 3.32061 13.2681 3.21705L13.2683 3.21685C13.5411 2.78186 13.826 2.32777 14.1731 1.90474C15.1761 0.761881 16.5134 0.0952148 17.994 0.0952148C19.4269 0.0952148 20.8119 0.761881 21.7672 1.95236C22.2448 2.47617 22.5791 3.0476 22.8657 3.57141C23.1045 4.0476 23.3433 4.52379 23.5821 4.95236L23.6776 5.14283C26.0179 9.61902 28.2149 14.1428 30.2687 18.619H30.3164C30.5074 19.0952 30.7462 19.6189 30.985 20.1427L30.9851 20.1428C31.1283 20.4761 31.2716 20.857 31.4149 21.2379L31.4149 21.238L31.4149 21.238ZM54.4836 7.57141C54.4836 8.66664 53.6239 9.52379 52.5254 9.52379C51.4269 9.52379 50.5672 8.66664 50.5672 7.57141C50.5672 6.47617 51.4269 5.61902 52.5254 5.61902C53.6716 5.66664 54.4836 6.52379 54.4836 7.57141ZM46.5075 11.4762V11.9524C46.5075 11.9524 45.6 10.7619 43.594 10.7619C40.3463 10.7619 37.8149 13.2381 37.8149 16.6666C37.8149 20.0476 40.3463 22.5714 43.594 22.5714C45.6 22.5714 46.5075 21.3333 46.5075 21.3333V21.8571C46.5075 22.0952 46.6985 22.2857 46.9373 22.2857H49.3731V11.0476H46.9373C46.6507 11.0476 46.5075 11.2381 46.5075 11.4762ZM44.0716 19.8571C45.1701 19.8571 46.0776 19.2857 46.5075 18.619V14.619C46.0776 14 45.1224 13.3809 44.0716 13.3809C42.1612 13.3809 40.6806 14.5714 40.6806 16.619C40.6806 18.6666 42.1612 19.8571 44.0716 19.8571ZM53.9582 11.0476V22.2381H51.0925V11.0476H53.9582ZM91.0209 11.9524C91.0209 11.9524 91.9761 10.7619 93.9343 10.7619C97.1821 10.7619 99.7134 13.2381 99.7134 16.619C99.7134 20 97.1821 22.5238 93.9343 22.5238C91.9284 22.5238 91.0209 21.2857 91.0209 21.2857V21.8095C91.0209 22.0476 90.8298 22.2381 90.591 22.2381H88.1552V5.66664H91.0209V11.9524ZM93.4567 19.8095C92.3582 19.8095 91.4985 19.2381 91.0209 18.5714V14.5714C91.4507 13.9524 92.406 13.3333 93.4567 13.3333C95.3672 13.3333 96.8478 14.5238 96.8478 16.5714C96.8478 18.619 95.3672 19.8095 93.4567 19.8095ZM86.6746 22.2857V15.619C86.6746 13.7143 86.2925 12.6666 85.3373 11.8571C84.4776 11.1428 83.4269 10.7619 82.1851 10.7619C81.0866 10.7619 79.9881 11.0952 79.1284 11.9524V11.4762C79.1284 11.2381 78.9373 11.0476 78.6985 11.0476H76.406V22.2857H79.2716V14.4762C79.8448 13.8095 80.7522 13.3809 81.6119 13.3809C83.1881 13.3809 83.809 14.0952 83.809 15.9524V22.2857H86.6746ZM69.4328 10.7619C67.4746 10.7619 66.5194 11.9524 66.5194 11.9524V5.66664H63.6537V22.2381H66.0895C66.3284 22.2381 66.5194 22.0476 66.5194 21.8095V21.2857C66.5194 21.2857 67.4269 22.5238 69.4328 22.5238C72.6806 22.5238 75.2119 20 75.2119 16.619C75.2597 13.2381 72.7284 10.7619 69.4328 10.7619ZM66.5194 18.5714C66.997 19.2381 67.8567 19.8095 68.9552 19.8095C70.8657 19.8095 72.3463 18.619 72.3463 16.5714C72.3463 14.5238 70.8657 13.3333 68.9552 13.3333C67.9045 13.3333 66.9492 13.9524 66.5194 14.5714V18.5714ZM61.2179 10.7619C62.0776 10.7619 62.5552 10.9047 62.5552 10.9047V13.5714C62.5552 13.5714 60.1672 12.7619 58.6866 14.4762V22.2857H55.8209V11.0476H58.2567C58.4955 11.0476 58.6866 11.2381 58.6866 11.4762V11.9524C59.1642 11.3333 60.3104 10.7619 61.2179 10.7619ZM17.9463 22.7619C16.3224 20.7143 15.2716 18.8095 14.9373 17.2381C14.794 16.5714 14.7463 15.9524 14.8418 15.4285C14.8895 14.9524 15.0806 14.5238 15.3194 14.1905C15.8925 13.3809 16.8478 12.8571 17.9463 12.8571C19.0448 12.8571 20.0478 13.3333 20.5731 14.1905C20.8119 14.5714 21.003 14.9524 21.0507 15.4285C21.1463 15.9524 21.0985 16.5714 20.9552 17.2381C20.6209 18.8095 19.5701 20.7143 17.9463 22.7619ZM27.1642 27.6666C28.6448 27.0952 29.6955 25.7619 29.8866 24.1905C29.9821 23.3809 29.8866 22.6666 29.7433 21.9047C29.6916 21.7501 29.6259 21.5954 29.5537 21.4256C29.4926 21.2817 29.4269 21.1271 29.3612 20.9524C29.2418 20.7143 29.1343 20.4643 29.0269 20.2143C28.9194 19.9643 28.8119 19.7143 28.6925 19.4762V19.4285C26.6388 15 24.4418 10.4762 22.1492 6.0476L22.0537 5.85712C21.8149 5.38093 21.5761 4.90474 21.3373 4.47617C21.0985 3.99998 20.8119 3.52379 20.4776 3.14283C19.8567 2.42855 18.997 2.0476 18.0895 2.0476C17.1821 2.0476 16.3224 2.42855 15.7015 3.14283C15.3672 3.57141 15.0806 3.99998 14.8418 4.47617C14.603 4.95236 14.3642 5.42855 14.1254 5.85712L14.0298 6.0476C11.6895 10.4762 9.49253 15 7.4388 19.4285L7.39104 19.4762C7.15223 19.9524 6.91343 20.4762 6.72238 20.9524L6.72237 20.9524C6.57909 21.2857 6.43581 21.619 6.34029 21.9047C6.00596 22.7619 5.9582 23.4762 6.05373 24.2381C6.24477 25.7619 7.29552 27.0952 8.77611 27.7143C9.44477 27.9524 10.2089 28.0952 11.0209 28C11.7851 27.9047 12.5492 27.6666 13.3134 27.2381C14.3642 26.619 15.4627 25.7143 16.7045 24.3333C14.7463 21.9047 13.5045 19.6666 13.0746 17.7143C12.8358 16.8095 12.7881 15.9524 12.9313 15.1905C13.0746 14.4285 13.3134 13.7619 13.7433 13.1428C14.6507 11.8571 16.2269 11.0476 17.9463 11.0476C19.6657 11.0476 21.2418 11.8095 22.1492 13.1428C22.5791 13.7619 22.8179 14.4285 22.9612 15.1905C23.0567 15.9524 23.0089 16.8095 22.8179 17.7143C22.3403 19.6666 21.1463 21.8571 19.1881 24.2857C20.4298 25.6666 21.4806 26.5714 22.5791 27.1905C23.391 27.619 24.1075 27.8571 24.8716 27.9524C25.6836 28.0476 26.4478 27.9524 27.1642 27.6666Z" fill="white"/>
</g>
<defs>
<filter id="filter0_d_1_383" x="0.0887756" y="0.0952148" width="103.625" height="37.762" filterUnits="userSpaceOnUse" color-interpolation-filters="sRGB">
<feFlood flood-opacity="0" result="BackgroundImageFix"/>
<feColorMatrix in="SourceAlpha" type="matrix" values="0 0 0 0 0 0 0 0 0 0 0 0 0 0 0 0 0 0 127 0" result="hardAlpha"/>
<feOffset dy="4"/>
<feGaussianBlur stdDeviation="2"/>
<feComposite in2="hardAlpha" operator="out"/>
<feColorMatrix type="matrix" values="0 0 0 0 0 0 0 0 0 0 0 0 0 0 0 0 0 0 0.25 0"/>
<feBlend mode="normal" in2="BackgroundImageFix" result="effect1_dropShadow_1_383"/>
<feBlend mode="normal" in="SourceGraphic" in2="effect1_dropShadow_1_383" result="shape"/>
</filter>
</defs>
</svg>
